<svg xmlns="http://www.w3.org/2000/svg" viewBox="0, 0, 576, 512">
    <path d="M633.8,458.1 L578.8,415.6 C594.2,414.2 608,401.9 608,384.5 L608,127.5 C608,102 578.9,87.1 557.6,101.7 L448,177.3 L448,314.5 L416,289.8 L416,111.8 C416,85.4 394.6,64 368.2,64 L123.9,64 L45.5,3.4 C38.5,-2 28.5,-0.8 23,6.2 L3.4,31.4 C-2,38.4 -0.8,48.4 6.2,53.8 L42.7,82 L416,370.6 L594.5,508.6 C601.5,514 611.5,512.8 617,505.8 L636.6,480.5 C642.1,473.6 640.8,463.5 633.8,458.1 z M32,400.2 C32,426.6 53.4,448 79.8,448 L368.2,448 C379.4,448 389.6,444 397.8,437.5 L32,154.7 L32,400.2 z" fill="#F7F7F7"/>
</svg>
